<svg xmlns="http://www.w3.org/2000/svg" version="1.1" xmlns:xlink="http://www.w3.org/1999/xlink" xmlns:svgjs="http://svgjs.dev/svgjs" width="1000" height="1000" viewBox="0 0 1000 1000"><rect width="1000" height="1000" fill="#000000"></rect><g transform="matrix(0.7,0,0,0.7,149.57576861319825,440.3321070723148)"><svg viewBox="0 0 396 68" data-background-color="#ffbe79" preserveAspectRatio="xMidYMid meet" height="171" width="1000" xmlns="http://www.w3.org/2000/svg" xmlns:xlink="http://www.w3.org/1999/xlink"><defs></defs><g id="tight-bounds" transform="matrix(1,0,0,1,0.23999375596213213,-0.10345263924318715)"><svg viewBox="0 0 395.52 68.20690527848635" height="68.20690527848635" width="395.52"><g><svg viewBox="0 0 594.2466623695145 102.47705757558185" height="68.20690527848635" width="395.52"><g transform="matrix(1,0,0,1,198.72666236951457,14.162892906610807)"><svg viewBox="0 0 395.52 74.15127176236024" height="74.15127176236024" width="395.52"><g><svg viewBox="0 0 395.52 74.15127176236024" height="74.15127176236024" width="395.52"><g><svg viewBox="0 0 395.52 52.832434691745036" height="52.832434691745036" width="395.52"><g transform="matrix(1,0,0,1,0,0)"><svg width="395.52" viewBox="4.449999809265137 -37.95000076293945 287.0799865722656 38.35000228881836" height="52.832434691745036" data-palette-color="#374151"><path d="M4.45 0L4.45-36.25 13.55-36.25Q19.05-36.25 22.85-34.6 26.65-32.95 29.03-30.28 31.4-27.6 32.48-24.28 33.55-20.95 33.55-17.65L33.55-17.65Q33.55-13.6 32.1-10.33 30.65-7.05 28.15-4.75 25.65-2.45 22.35-1.23 19.05 0 15.35 0L15.35 0 4.45 0ZM9.9-5.2L14.55-5.2Q17.45-5.2 19.93-6.05 22.4-6.9 24.23-8.53 26.05-10.15 27.08-12.53 28.1-14.9 28.1-18L28.1-18Q28.1-21.3 26.95-23.75 25.8-26.2 23.95-27.83 22.1-29.45 19.78-30.23 17.45-31 15.05-31L15.05-31 9.9-31 9.9-5.2ZM64.5 0L40 0 40-36.25 63.8-36.25 63.8-31.3 45.5-31.3 45.5-20.7 61.8-20.7 61.8-15.65 45.5-15.65 45.5-5.05 64.5-5.05 64.5 0ZM68.4-36.25L91.95-36.25 91.95-31.05 82.8-31.05 82.8 0 77.35 0 77.35-31.05 68.4-31.05 68.4-36.25ZM122.89 0L98.39 0 98.39-36.25 122.19-36.25 122.19-31.3 103.89-31.3 103.89-20.7 120.19-20.7 120.19-15.65 103.89-15.65 103.89-5.05 122.89-5.05 122.89 0ZM153.19-7.55L155.49-2.6Q154.89-2.15 153.82-1.63 152.74-1.1 151.29-0.65 149.84-0.2 148.07 0.1 146.29 0.4 144.29 0.4L144.29 0.4Q140.04 0.4 136.67-1.07 133.29-2.55 130.94-5.05 128.59-7.55 127.34-10.85 126.09-14.15 126.09-17.85L126.09-17.85Q126.09-21.95 127.57-25.4 129.04-28.85 131.59-31.35 134.14-33.85 137.57-35.25 140.99-36.65 144.84-36.65L144.84-36.65Q146.29-36.65 147.79-36.45 149.29-36.25 150.62-35.9 151.94-35.55 152.97-35.08 153.99-34.6 154.54-34.1L154.54-34.1Q154.14-33.5 153.92-33.1 153.69-32.7 153.44-32.27 153.19-31.85 152.89-31.3 152.59-30.75 152.09-29.85L152.09-29.85Q151.44-30.3 150.57-30.6 149.69-30.9 148.74-31.1 147.79-31.3 146.82-31.4 145.84-31.5 145.04-31.5L145.04-31.5Q142.14-31.5 139.67-30.43 137.19-29.35 135.39-27.53 133.59-25.7 132.57-23.3 131.54-20.9 131.54-18.3L131.54-18.3Q131.54-15.75 132.52-13.4 133.49-11.05 135.22-9.2 136.94-7.35 139.37-6.25 141.79-5.15 144.69-5.15L144.69-5.15Q146.24-5.15 147.69-5.45 149.14-5.75 150.32-6.15 151.49-6.55 152.27-6.95 153.04-7.35 153.19-7.55L153.19-7.55ZM158.04-36.25L181.59-36.25 181.59-31.05 172.44-31.05 172.44 0 166.99 0 166.99-31.05 158.04-31.05 158.04-36.25ZM212.64 0L207.24 0Q206.99-0.55 206.54-1.6 206.09-2.65 205.51-4.03 204.94-5.4 204.26-7.03 203.59-8.65 202.89-10.4L202.89-10.4 190.09-10.4 185.79 0 180.39 0 196.54-37.95Q196.84-37.25 197.61-35.4 198.39-33.55 199.46-30.98 200.54-28.4 201.86-25.28 203.19-22.15 204.56-18.95 205.94-15.75 207.26-12.65 208.59-9.55 209.69-6.95 210.79-4.35 211.56-2.53 212.34-0.7 212.64 0L212.64 0ZM195.99-24.7L191.99-15 201.04-15Q200.34-16.65 199.71-18.18 199.09-19.7 198.56-20.98 198.04-22.25 197.64-23.2 197.24-24.15 197.04-24.7L197.04-24.7Q196.99-24.8 196.81-25.4 196.64-26 196.54-26.5L196.54-26.5Q196.44-26 196.24-25.4 196.04-24.8 195.99-24.7L195.99-24.7ZM217.13 0L217.13-36.25 222.58-36.25 222.58 0 217.13 0ZM231.48 0L231.48-36.25 240.58-36.25Q246.08-36.25 249.88-34.6 253.68-32.95 256.06-30.28 258.43-27.6 259.51-24.28 260.58-20.95 260.58-17.65L260.58-17.65Q260.58-13.6 259.13-10.33 257.68-7.05 255.18-4.75 252.68-2.45 249.38-1.23 246.08 0 242.38 0L242.38 0 231.48 0ZM236.93-5.2L241.58-5.2Q244.48-5.2 246.96-6.05 249.43-6.9 251.26-8.53 253.08-10.15 254.11-12.53 255.13-14.9 255.13-18L255.13-18Q255.13-21.3 253.98-23.75 252.83-26.2 250.98-27.83 249.13-29.45 246.81-30.23 244.48-31 242.08-31L242.08-31 236.93-31 236.93-5.2ZM291.53 0L267.03 0 267.03-36.25 290.83-36.25 290.83-31.3 272.53-31.3 272.53-20.7 288.83-20.7 288.83-15.65 272.53-15.65 272.53-5.05 291.53-5.05 291.53 0Z" opacity="1" transform="matrix(1,0,0,1,0,0)" fill="#ffffff" class="undefined-text-0" data-fill-palette-color="primary" id="text-0"></path></svg></g></svg></g><g transform="matrix(1,0,0,1,0,65.30490454403343)"><svg viewBox="0 0 232.209792 8.846367218326794" height="8.846367218326794" width="232.209792"><g transform="matrix(1,0,0,1,0,0)"><svg width="232.209792" viewBox="0 -36.25 964.3900146484375 36.7400016784668" height="8.846367218326794" data-palette-color="#374151"><path d="M31.64 0L27.34 0 22.9-11.35 8.59-11.35 4.2 0 0 0 14.11-35.84 17.6-35.84 31.64 0ZM10.06-15.09L21.61-15.09 17.46-26.15Q16.65-28.25 15.8-31.3L15.8-31.3Q15.26-28.96 14.26-26.15L14.26-26.15 10.06-15.09ZM40.7 0L36.55 0 36.55-35.69 40.7-35.69 40.7 0ZM86.1-25.29L86.1-25.29Q86.1-19.87 82.4-16.96 78.7-14.04 71.82-14.04L71.82-14.04 67.62-14.04 67.62 0 63.47 0 63.47-35.69 72.72-35.69Q86.1-35.69 86.1-25.29ZM67.62-32.1L67.62-17.6 71.35-17.6Q76.87-17.6 79.34-19.38 81.8-21.17 81.8-25.1L81.8-25.1Q81.8-28.64 79.48-30.37 77.17-32.1 72.26-32.1L72.26-32.1 67.62-32.1ZM124.55-17.9L124.55-17.9Q124.55-9.33 120.22-4.42 115.88 0.49 108.17 0.49L108.17 0.49Q100.28 0.49 96-4.33 91.71-9.16 91.71-17.94L91.71-17.94Q91.71-26.66 96.01-31.46 100.31-36.25 108.22-36.25L108.22-36.25Q115.91-36.25 120.23-31.37 124.55-26.49 124.55-17.9ZM96.11-17.9L96.11-17.9Q96.11-10.64 99.2-6.9 102.28-3.15 108.17-3.15L108.17-3.15Q114.1-3.15 117.13-6.88 120.16-10.62 120.16-17.9L120.16-17.9Q120.16-25.1 117.14-28.82 114.13-32.54 108.22-32.54L108.22-32.54Q102.28-32.54 99.2-28.8 96.11-25.05 96.11-17.9ZM173.21-35.69L163.66 0 159.56 0 152.36-23.9Q151.84-25.49 151.21-27.91 150.57-30.32 150.55-30.81L150.55-30.81Q150.01-27.59 148.84-23.75L148.84-23.75 141.86 0 137.76 0 128.26-35.69 132.65-35.69 138.29-13.65Q139.47-9.01 140-5.25L140-5.25Q140.66-9.72 141.96-13.99L141.96-13.99 148.35-35.69 152.75-35.69 159.46-13.79Q160.63-10.01 161.44-5.25L161.44-5.25Q161.9-8.72 163.2-13.7L163.2-13.7 168.81-35.69 173.21-35.69ZM198.69-3.71L198.69 0 178.79 0 178.79-35.69 198.69-35.69 198.69-32.01 182.94-32.01 182.94-20.51 197.74-20.51 197.74-16.85 182.94-16.85 182.94-3.71 198.69-3.71ZM218.2-14.84L210.75-14.84 210.75 0 206.6 0 206.6-35.69 216.39-35.69Q222.96-35.69 226.09-33.18 229.23-30.66 229.23-25.61L229.23-25.61Q229.23-18.53 222.05-16.04L222.05-16.04 231.75 0 226.84 0 218.2-14.84ZM210.75-32.06L210.75-18.41 216.44-18.41Q220.83-18.41 222.88-20.15 224.93-21.9 224.93-25.39L224.93-25.39Q224.93-28.93 222.85-30.49 220.76-32.06 216.14-32.06L216.14-32.06 210.75-32.06ZM257.4-3.71L257.4 0 237.5 0 237.5-35.69 257.4-35.69 257.4-32.01 241.65-32.01 241.65-20.51 256.45-20.51 256.45-16.85 241.65-16.85 241.65-3.71 257.4-3.71ZM293.8-18.19L293.8-18.19Q293.8-9.35 289-4.68 284.21 0 275.2 0L275.2 0 265.31 0 265.31-35.69 276.25-35.69Q284.57-35.69 289.19-31.08 293.8-26.46 293.8-18.19ZM289.41-18.04L289.41-18.04Q289.41-25.02 285.9-28.56 282.4-32.1 275.49-32.1L275.49-32.1 269.46-32.1 269.46-3.59 274.51-3.59Q281.94-3.59 285.67-7.24 289.41-10.89 289.41-18.04ZM341.48 0L337.18 0 332.74-11.35 318.43-11.35 314.04 0 309.84 0 323.95-35.84 327.44-35.84 341.48 0ZM319.89-15.09L331.44-15.09 327.29-26.15Q326.49-28.25 325.63-31.3L325.63-31.3Q325.09-28.96 324.09-26.15L324.09-26.15 319.89-15.09ZM366.52-9.5L366.52-9.5Q366.52-4.79 363.1-2.15 359.69 0.49 353.83 0.49L353.83 0.49Q347.48 0.49 344.06-1.15L344.06-1.15 344.06-5.15Q346.26-4.22 348.85-3.69 351.43-3.15 353.97-3.15L353.97-3.15Q358.12-3.15 360.22-4.72 362.32-6.3 362.32-9.11L362.32-9.11Q362.32-10.96 361.58-12.15 360.83-13.33 359.09-14.33 357.34-15.33 353.78-16.6L353.78-16.6Q348.8-18.38 346.66-20.83 344.53-23.27 344.53-27.2L344.53-27.2Q344.53-31.32 347.63-33.76 350.73-36.21 355.83-36.21L355.83-36.21Q361.15-36.21 365.62-34.25L365.62-34.25 364.33-30.64Q359.91-32.5 355.73-32.5L355.73-32.5Q352.44-32.5 350.58-31.08 348.72-29.66 348.72-27.15L348.72-27.15Q348.72-25.29 349.41-24.11 350.09-22.92 351.72-21.94 353.34-20.95 356.68-19.75L356.68-19.75Q362.3-17.75 364.41-15.45 366.52-13.16 366.52-9.5ZM393.96-9.5L393.96-9.5Q393.96-4.79 390.54-2.15 387.13 0.49 381.27 0.49L381.27 0.49Q374.92 0.49 371.5-1.15L371.5-1.15 371.5-5.15Q373.7-4.22 376.29-3.69 378.87-3.15 381.41-3.15L381.41-3.15Q385.56-3.15 387.66-4.72 389.76-6.3 389.76-9.11L389.76-9.11Q389.76-10.96 389.02-12.15 388.27-13.33 386.53-14.33 384.78-15.33 381.22-16.6L381.22-16.6Q376.24-18.38 374.1-20.83 371.96-23.27 371.96-27.2L371.96-27.2Q371.96-31.32 375.07-33.76 378.17-36.21 383.27-36.21L383.27-36.21Q388.59-36.21 393.06-34.25L393.06-34.25 391.76-30.64Q387.35-32.5 383.17-32.5L383.17-32.5Q379.87-32.5 378.02-31.08 376.16-29.66 376.16-27.15L376.16-27.15Q376.16-25.29 376.85-24.11 377.53-22.92 379.15-21.94 380.78-20.95 384.12-19.75L384.12-19.75Q389.74-17.75 391.85-15.45 393.96-13.16 393.96-9.5ZM405.41 0L401.26 0 401.26-35.69 405.41-35.69 405.41 0ZM435.34-9.5L435.34-9.5Q435.34-4.79 431.92-2.15 428.5 0.49 422.64 0.49L422.64 0.49Q416.3 0.49 412.88-1.15L412.88-1.15 412.88-5.15Q415.07-4.22 417.66-3.69 420.25-3.15 422.79-3.15L422.79-3.15Q426.94-3.15 429.04-4.72 431.14-6.3 431.14-9.11L431.14-9.11Q431.14-10.96 430.39-12.15 429.65-13.33 427.9-14.33 426.16-15.33 422.59-16.6L422.59-16.6Q417.61-18.38 415.48-20.83 413.34-23.27 413.34-27.2L413.34-27.2Q413.34-31.32 416.44-33.76 419.54-36.21 424.65-36.21L424.65-36.21Q429.97-36.21 434.44-34.25L434.44-34.25 433.14-30.64Q428.72-32.5 424.55-32.5L424.55-32.5Q421.25-32.5 419.4-31.08 417.54-29.66 417.54-27.15L417.54-27.15Q417.54-25.29 418.22-24.11 418.91-22.92 420.53-21.94 422.15-20.95 425.5-19.75L425.5-19.75Q431.11-17.75 433.23-15.45 435.34-13.16 435.34-9.5ZM453.62-32.01L453.62 0 449.47 0 449.47-32.01 438.17-32.01 438.17-35.69 464.93-35.69 464.93-32.01 453.62-32.01ZM497.03 0L492.73 0 488.29-11.35 473.98-11.35 469.59 0 465.39 0 479.5-35.84 482.99-35.84 497.03 0ZM475.45-15.09L486.99-15.09 482.84-26.15Q482.04-28.25 481.18-31.3L481.18-31.3Q480.65-28.96 479.65-26.15L479.65-26.15 475.45-15.09ZM529.81-35.69L529.81 0 525.08 0 505.57-29.96 505.37-29.96Q505.77-24.68 505.77-20.29L505.77-20.29 505.77 0 501.93 0 501.93-35.69 506.62-35.69 526.08-5.86 526.27-5.86Q526.22-6.52 526.05-10.1 525.88-13.67 525.93-15.21L525.93-15.21 525.93-35.69 529.81-35.69ZM554.91-32.5L554.91-32.5Q549.02-32.5 545.62-28.58 542.21-24.66 542.21-17.85L542.21-17.85Q542.21-10.84 545.5-7.02 548.78-3.2 554.86-3.2L554.86-3.2Q558.6-3.2 563.38-4.54L563.38-4.54 563.38-0.9Q559.67 0.49 554.22 0.49L554.22 0.49Q546.34 0.49 542.05-4.3 537.77-9.08 537.77-17.9L537.77-17.9Q537.77-23.41 539.83-27.56 541.9-31.71 545.79-33.96 549.68-36.21 554.96-36.21L554.96-36.21Q560.57-36.21 564.77-34.16L564.77-34.16 563.01-30.59Q558.96-32.5 554.91-32.5ZM591.06-3.71L591.06 0 571.17 0 571.17-35.69 591.06-35.69 591.06-32.01 575.32-32.01 575.32-20.51 590.11-20.51 590.11-16.85 575.32-16.85 575.32-3.71 591.06-3.71ZM616.11-15.26L616.11 0 611.96 0 611.96-35.69 631.85-35.69 631.85-32.01 616.11-32.01 616.11-18.95 630.9-18.95 630.9-15.26 616.11-15.26ZM668.74-17.9L668.74-17.9Q668.74-9.33 664.41-4.42 660.07 0.49 652.36 0.49L652.36 0.49Q644.47 0.49 640.19-4.33 635.9-9.16 635.9-17.94L635.9-17.94Q635.9-26.66 640.2-31.46 644.5-36.25 652.41-36.25L652.41-36.25Q660.1-36.25 664.42-31.37 668.74-26.49 668.74-17.9ZM640.3-17.9L640.3-17.9Q640.3-10.64 643.39-6.9 646.48-3.15 652.36-3.15L652.36-3.15Q658.29-3.15 661.32-6.88 664.35-10.62 664.35-17.9L664.35-17.9Q664.35-25.1 661.33-28.82 658.32-32.54 652.41-32.54L652.41-32.54Q646.48-32.54 643.39-28.8 640.3-25.05 640.3-17.9ZM688.29-14.84L680.85-14.84 680.85 0 676.7 0 676.7-35.69 686.49-35.69Q693.06-35.69 696.19-33.18 699.33-30.66 699.33-25.61L699.33-25.61Q699.33-18.53 692.15-16.04L692.15-16.04 701.84 0 696.94 0 688.29-14.84ZM680.85-32.06L680.85-18.41 686.54-18.41Q690.93-18.41 692.98-20.15 695.03-21.9 695.03-25.39L695.03-25.39Q695.03-28.93 692.95-30.49 690.86-32.06 686.24-32.06L686.24-32.06 680.85-32.06ZM731.58-32.01L731.58 0 727.43 0 727.43-32.01 716.12-32.01 716.12-35.69 742.88-35.69 742.88-32.01 731.58-32.01ZM775.35-35.69L775.35 0 771.2 0 771.2-16.8 752.4-16.8 752.4 0 748.25 0 748.25-35.69 752.4-35.69 752.4-20.51 771.2-20.51 771.2-35.69 775.35-35.69ZM805.03-3.71L805.03 0 785.14 0 785.14-35.69 805.03-35.69 805.03-32.01 789.29-32.01 789.29-20.51 804.08-20.51 804.08-16.85 789.29-16.85 789.29-3.71 805.03-3.71ZM825.93 0L825.93-35.69 836.01-35.69Q843.11-35.69 846.29-33.57 849.46-31.45 849.46-26.86L849.46-26.86Q849.46-23.68 847.69-21.62 845.92-19.56 842.53-18.95L842.53-18.95 842.53-18.7Q850.66-17.31 850.66-10.16L850.66-10.16Q850.66-5.37 847.42-2.69 844.19 0 838.38 0L838.38 0 825.93 0ZM830.08-32.1L830.08-20.41 836.91-20.41Q841.31-20.41 843.24-21.79 845.16-23.17 845.16-26.44L845.16-26.44Q845.16-29.44 843.02-30.77 840.87-32.1 836.18-32.1L836.18-32.1 830.08-32.1ZM837.18-16.89L830.08-16.89 830.08-3.54 837.52-3.54Q841.84-3.54 844.03-5.21 846.21-6.88 846.21-10.45L846.21-10.45Q846.21-13.77 843.98-15.33 841.75-16.89 837.18-16.89L837.18-16.89ZM878.22 0L858.32 0 858.32-35.69 862.47-35.69 862.47-3.76 878.22-3.76 878.22 0ZM888.42 0L884.27 0 884.27-35.69 888.42-35.69 888.42 0ZM926.09-35.69L926.09 0 921.35 0 901.85-29.96 901.65-29.96Q902.04-24.68 902.04-20.29L902.04-20.29 902.04 0 898.21 0 898.21-35.69 902.9-35.69 922.35-5.86 922.55-5.86Q922.5-6.52 922.33-10.1 922.16-13.67 922.21-15.21L922.21-15.21 922.21-35.69 926.09-35.69ZM964.39-18.19L964.39-18.19Q964.39-9.35 959.6-4.68 954.8 0 945.79 0L945.79 0 935.9 0 935.9-35.69 946.84-35.69Q955.16-35.69 959.78-31.08 964.39-26.46 964.39-18.19ZM960-18.04L960-18.04Q960-25.02 956.49-28.56 952.99-32.1 946.08-32.1L946.08-32.1 940.05-32.1 940.05-3.59 945.11-3.59Q952.53-3.59 956.26-7.24 960-10.89 960-18.04Z" opacity="1" transform="matrix(1,0,0,1,0,0)" fill="#ffffff" class="undefined-text-1" data-fill-palette-color="secondary" id="text-1"></path></svg></g></svg></g></svg></g></svg></g><g><svg viewBox="0 0 186.25419251722616 102.47705757558185" height="102.47705757558185" width="186.25419251722616"><g><svg version="1.0" xmlns="http://www.w3.org/2000/svg" xmlns:xlink="http://www.w3.org/1999/xlink" x="0" y="0" viewBox="0 0 100 55.02000045776367" enable-background="new 0 0 100 55.02" xml:space="preserve" width="186.25419251722616" height="102.47705757558185" class="icon-icon-0" data-fill-palette-color="accent" id="icon-0"><path d="M99.431 26.647C88.421 9.962 69.942 0 50.006 0 30.073 0 11.593 9.962 0.569 26.647L0 27.51l0.569 0.86c11.014 16.688 29.497 26.65 49.437 26.65 19.936 0 38.415-9.962 49.425-26.655L100 27.51 99.431 26.647zM6.034 27.51C14.156 16.256 26.065 8.685 39.415 6.034c-2.232 1.128-4.299 2.609-6.115 4.42-4.543 4.54-7.046 10.578-7.046 16.994 0 6.42 2.503 12.461 7.046 16.999 1.928 1.922 4.128 3.457 6.505 4.612C26.301 46.479 14.236 38.871 6.034 27.51zM50.253 42.336c-8.185 0-14.836-6.66-14.836-14.84 0-3.963 1.546-7.685 4.34-10.494 2.803-2.803 6.53-4.343 10.496-4.343 3.959 0 7.687 1.54 10.494 4.343 2.801 2.809 4.344 6.53 4.344 10.494 0 3.963-1.543 7.691-4.344 10.497C57.94 40.792 54.212 42.336 50.253 42.336zM61.158 48.879c2.24-1.135 4.304-2.61 6.129-4.432 4.536-4.538 7.041-10.579 7.041-16.999 0-9.212-5.226-17.224-12.856-21.25 12.996 2.801 24.56 10.305 32.497 21.312C85.966 38.602 74.285 46.126 61.158 48.879z" fill="#ffffff" data-fill-palette-color="accent"></path><path d="M45.106 28.331c2.706 0 4.903-2.193 4.903-4.903 0-2.71-2.197-4.906-4.903-4.906-2.709 0-4.903 2.196-4.903 4.906C40.204 26.138 42.397 28.331 45.106 28.331" fill="#ffffff" data-fill-palette-color="accent"></path></svg></g></svg></g></svg></g></svg><rect width="395.52" height="68.20690527848635" fill="none" stroke="none" visibility="hidden"></rect></g></svg></g></svg>